<svg width="13" height="22" viewBox="0 0 13 22" fill="none" xmlns="http://www.w3.org/2000/svg">
<path fill-rule="evenodd" clip-rule="evenodd" d="M4.10408 0.0194457C2.40503 0.0926541 0.109041 0.295779 0.0206069 0.380737C-0.0496251 0.448237 0.0763528 8.15561 0.148865 8.2272C0.197855 8.27553 1.21485 8.35428 3.13274 8.4582C5.06072 8.5627 11.5831 8.50707 12.012 8.38245C12.0525 8.37065 12.0945 8.32007 12.1052 8.27003C12.1335 8.13707 12.2113 0.453154 12.1849 0.385404C12.1727 0.353862 12.1311 0.318696 12.0926 0.307196C11.9035 0.250862 10.0694 0.101321 8.72849 0.0329041C8.02102 -0.00313752 4.84381 -0.0124293 4.10408 0.0194457ZM8.03166 0.242779C9.98646 0.313571 11.9114 0.470404 11.947 0.561779C11.9779 0.641321 11.8881 8.11732 11.8558 8.1492C11.8131 8.19132 10.6811 8.23849 8.80595 8.27615C6.84266 8.31565 4.12211 8.27499 2.45702 8.18128C0.490059 8.07061 0.384986 8.0627 0.360364 8.0234C0.339037 7.98936 0.224841 2.28365 0.220407 1.0297L0.218718 0.546988L0.74379 0.496737C3.47368 0.235612 5.69513 0.158196 8.03166 0.242779ZM6.0767 8.6009C6.06023 8.61715 6.0468 8.80078 6.0468 9.00895L6.04684 9.3874L5.25494 9.35911C4.8194 9.34357 4.42981 9.34011 4.38914 9.35149C4.34514 9.36382 4.31524 9.41261 4.31524 9.47207C4.31524 9.52699 4.72383 10.8317 5.22323 12.3714C5.72262 13.9111 6.13122 15.2307 6.13122 15.3037C6.13122 15.3767 5.72262 16.7511 5.22323 18.3579C4.72383 19.9647 4.31524 21.325 4.31524 21.3809C4.31524 21.4369 4.33901 21.4917 4.36811 21.5027C4.39717 21.5137 5.25714 21.4109 6.27912 21.2744C7.65352 21.0907 8.15017 21.0097 8.18687 20.9634C8.22504 20.9153 8.22403 20.8608 8.18248 20.7274C8.15274 20.6321 7.74411 19.3714 7.27436 17.9258L6.4203 15.2975L7.30603 12.4467C7.92021 10.4697 8.18045 9.57482 8.15498 9.52749C8.12348 9.46899 7.98791 9.45482 7.21063 9.4287L6.3031 9.39815L6.29107 8.99695C6.28004 8.62936 6.27181 8.59474 6.19284 8.58357C6.14541 8.57686 6.09317 8.58469 6.0767 8.6009ZM6.05195 9.65236C6.06639 9.66707 6.09046 10.7278 6.10546 12.0097C6.12045 13.2915 6.12484 14.3321 6.11525 14.3222C6.10563 14.3122 5.76046 13.2634 5.34823 11.9916C4.93596 10.7197 4.58911 9.65365 4.57741 9.62261C4.5598 9.57574 4.68122 9.5712 5.29092 9.5959C5.695 9.61228 6.03746 9.63765 6.05195 9.65236ZM7.68646 9.68332C7.83224 9.69844 7.90514 9.72382 7.89373 9.75536C7.88402 9.78215 7.54523 10.8728 7.1409 12.1791L6.40573 14.5541L6.37857 14.1166C6.36362 13.8759 6.34065 12.7692 6.32747 11.6571L6.30357 9.63511L6.88257 9.64753C7.201 9.65436 7.56276 9.67044 7.68646 9.68332ZM7.18656 18.4221C7.60884 19.7245 7.948 20.7958 7.94023 20.8028C7.92186 20.8193 6.65954 20.9916 6.55688 20.9916C6.4836 20.9916 6.47685 20.9311 6.45374 20.0645C6.41814 18.7287 6.38372 16.0184 6.40264 16.0377C6.41147 16.0467 6.76424 17.1197 7.18656 18.4221ZM6.20483 20.5317L6.19457 21.0509L5.49774 21.1459C5.11448 21.1982 4.75149 21.2364 4.69106 21.2308L4.58121 21.2207L5.31373 18.8666C5.71658 17.5718 6.06947 16.4374 6.0979 16.3457C6.14135 16.2058 6.15487 16.4863 6.18236 18.0957C6.20035 19.1499 6.21049 20.2461 6.20483 20.5317Z" fill="black"/>
</svg>
